<?xml version="1.0" standalone="no"?>
<!DOCTYPE svg PUBLIC "-//W3C//DTD SVG 20010904//EN"
 "http://www.w3.org/TR/2001/REC-SVG-20010904/DTD/svg10.dtd">
<svg version="1.0" xmlns="http://www.w3.org/2000/svg"
 width="1024.000000pt" height="1024.000000pt" viewBox="0 0 1024.000000 1024.000000"
 preserveAspectRatio="xMidYMid meet">
<metadata>
Created by potrace 1.11, written by Peter Selinger 2001-2013
</metadata>
<g transform="translate(0.000000,1024.000000) scale(0.100000,-0.100000)"
fill="#000000" stroke="none">
<path d="M3296 9663 c-1 -1 -355 -3 -787 -4 l-784 -1 -113 -24 c-163 -34 -287
-81 -412 -154 -101 -60 -284 -226 -363 -330 -34 -44 -117 -176 -117 -185 0 -2
-13 -32 -29 -67 -38 -80 -72 -191 -87 -280 -2 -16 -7 -43 -11 -60 -10 -48 -14
-6796 -3 -6843 4 -22 10 -56 13 -75 40 -293 233 -606 494 -801 117 -88 135
-97 328 -180 25 -11 121 -37 160 -44 17 -3 59 -10 95 -17 50 -9 826 -12 3410
-12 1840 0 3379 3 3420 7 62 6 150 22 230 42 182 46 384 168 547 331 191 192
306 416 353 688 17 95 18 306 18 3466 1 3258 0 3368 -18 3470 -35 194 -94 347
-186 485 -26 39 -50 72 -54 75 -4 3 -11 13 -17 23 -16 30 -143 156 -213 212
-149 120 -334 208 -510 244 -30 6 -68 13 -85 17 -16 3 -104 8 -195 11 -160 4
-5079 10 -5084 6z m39 -1969 c62 -15 174 -67 216 -100 57 -45 152 -151 184
-206 121 -205 114 -472 -16 -667 -71 -107 -173 -194 -289 -248 -136 -63 -334
-69 -475 -14 -116 44 -200 108 -305 231 -29 34 -97 176 -106 220 -38 205 -2
388 104 530 166 223 427 320 687 254z m3868 7 c218 -50 404 -220 481 -441 25
-72 31 -270 10 -348 -66 -250 -280 -445 -529 -483 -414 -65 -784 284 -743 700
14 150 75 277 184 387 80 81 131 116 219 152 115 46 261 59 378 33z m-3884
-1944 c205 -52 384 -210 460 -407 76 -196 49 -424 -70 -590 -30 -43 -112 -127
-155 -160 -123 -96 -318 -143 -488 -117 -234 37 -456 242 -520 482 -21 81 -24
205 -5 294 47 223 242 427 473 492 60 17 246 20 305 6z m3894 -3 c115 -27 254
-111 327 -197 14 -16 35 -41 48 -56 31 -35 98 -176 108 -226 4 -22 9 -47 11
-55 5 -23 4 -172 -2 -200 -4 -23 -17 -78 -20 -90 -31 -109 -139 -255 -245
-332 -111 -82 -234 -121 -375 -122 -182 0 -327 63 -461 200 -195 197 -241 478
-119 729 19 39 46 84 60 100 14 17 36 41 48 55 40 47 134 117 193 145 129 62
291 80 427 49z m-3927 -1939 c222 -33 444 -232 511 -457 19 -67 22 -86 23
-174 4 -205 -87 -386 -261 -524 -182 -144 -448 -170 -662 -66 -68 34 -88 48
-162 114 -89 80 -164 206 -191 323 -18 76 -20 221 -3 281 6 24 13 51 15 61 5
27 63 138 92 177 112 149 265 245 427 267 22 3 41 6 42 7 5 5 122 -2 169 -9z
m3893 0 c174 -27 365 -166 458 -335 25 -45 59 -144 67 -195 7 -43 9 -180 2
-205 -2 -8 -7 -35 -11 -58 -4 -24 -27 -81 -50 -126 -144 -282 -442 -421 -741
-346 -238 61 -443 285 -479 525 -11 73 -7 185 9 250 30 119 84 213 175 305
155 156 350 220 570 185z"/>
</g>
</svg>
